<svg id="google-icon" xmlns="http://www.w3.org/2000/svg" width="17.024" height="17.372" viewBox="0 0 17.024 17.372">
  <path id="Path_205" data-name="Path 205" d="M138.889,108.537a7.444,7.444,0,0,0-.183-1.776H130.55v3.223h4.787a4.245,4.245,0,0,1-1.776,2.818l-.016.108,2.579,2,.179.018a8.493,8.493,0,0,0,2.586-6.389" transform="translate(-121.864 -99.658)" fill="#4285f4"/>
  <path id="Path_206" data-name="Path 206" d="M21.684,163.338a8.279,8.279,0,0,0,5.752-2.1L24.7,159.111a5.141,5.141,0,0,1-3.011.869,5.229,5.229,0,0,1-4.941-3.609l-.1.009-2.681,2.075-.035.1a8.68,8.68,0,0,0,7.759,4.787" transform="translate(-12.999 -145.966)" fill="#34a853"/>
  <path id="Path_207" data-name="Path 207" d="M3.745,76.971a5.347,5.347,0,0,1-.289-1.718,5.619,5.619,0,0,1,.28-1.718l0-.115L1.015,71.312l-.089.042a8.668,8.668,0,0,0,0,7.8l2.818-2.181" transform="translate(0 -66.567)" fill="#fbbc05"/>
  <path id="Path_208" data-name="Path 208" d="M21.684,3.359a4.814,4.814,0,0,1,3.359,1.293l2.451-2.393A8.345,8.345,0,0,0,21.684,0a8.68,8.68,0,0,0-7.759,4.787l2.808,2.181a5.25,5.25,0,0,1,4.951-3.61" transform="translate(-12.999)" fill="#eb4335"/>
</svg>
